<svg width="14" height="14" viewBox="0 0 14 14" fill="none" xmlns="http://www.w3.org/2000/svg">
<path d="M6.16046 1.29732C6.55452 0.68838 7.44548 0.68838 7.83954 1.29732L8.07279 1.65775C8.32996 2.05515 8.83054 2.2178 9.27219 2.04746L9.67275 1.89296C10.3495 1.63195 11.0703 2.15564 11.0312 2.8799L11.008 3.3086C10.9825 3.78127 11.2918 4.20709 11.7493 4.32887L12.1641 4.43932C12.865 4.62593 13.1404 5.47327 12.683 6.03622L12.4123 6.36944C12.1138 6.73683 12.1138 7.26317 12.4123 7.63056L12.683 7.96377C13.1404 8.52673 12.865 9.37407 12.1641 9.56068L11.7493 9.67113C11.2918 9.79291 10.9825 10.2187 11.008 10.6914L11.0312 11.1201C11.0703 11.8444 10.3495 12.3681 9.67275 12.107L9.27219 11.9525C8.83054 11.7822 8.32996 11.9448 8.07279 12.3423L7.83954 12.7027C7.44548 13.3116 6.55452 13.3116 6.16046 12.7027L5.92721 12.3423C5.67004 11.9448 5.16946 11.7822 4.72781 11.9525L4.32725 12.107C3.65052 12.3681 2.92973 11.8444 2.96884 11.1201L2.992 10.6914C3.01753 10.2187 2.70815 9.79291 2.25073 9.67113L1.83586 9.56068C1.13495 9.37407 0.859633 8.52673 1.31699 7.96378L1.58771 7.63056C1.88619 7.26317 1.88619 6.73683 1.58771 6.36944L1.31699 6.03622C0.859633 5.47327 1.13495 4.62593 1.83586 4.43932L2.25073 4.32887C2.70815 4.20709 3.01753 3.78127 2.992 3.3086L2.96884 2.8799C2.92973 2.15564 3.65052 1.63195 4.32725 1.89296L4.72781 2.04746C5.16945 2.2178 5.67004 2.05515 5.92721 1.65775L6.16046 1.29732Z" stroke="#7CFFD6" stroke-width="1.5"/>
<path d="M4.90015 7.00004L5.94659 8.04648C6.14186 8.24175 6.45844 8.24175 6.6537 8.04648L9.10015 5.60004" stroke="#7CFFD6" stroke-width="1.5" stroke-linecap="round"/>
</svg>
